<svg class="github-icon" viewBox="0 0 32 30" fill="none" xmlns="http://www.w3.org/2000/svg">
    <path fill-rule="evenodd" clip-rule="evenodd" d="M15.8524 0.432373C7.18405 0.432373 0.163086 7.11675 0.163086 15.3695C0.163086 21.9792 4.65415 27.562 10.8907 29.5411C11.6751 29.6718 11.9693 29.2237 11.9693 28.8316C11.9693 28.4769 11.9497 27.3006 11.9497 26.0496C8.00774 26.7404 6.98794 25.1347 6.67415 24.2945C6.49765 23.865 5.73279 22.5394 5.066 22.1846C4.51687 21.9045 3.73241 21.2137 5.04639 21.195C6.28192 21.1763 7.16444 22.2779 7.45862 22.7261C8.87066 24.9853 11.126 24.3505 12.0281 23.9584C12.1654 22.9875 12.5773 22.334 13.0283 21.9605C9.53745 21.5871 5.88969 20.2988 5.88969 14.5853C5.88969 12.9609 6.49765 11.6166 7.49784 10.571C7.34095 10.1975 6.79182 8.66648 7.65473 6.61262C7.65473 6.61262 8.96871 6.22052 11.9693 8.14368C13.2244 7.80759 14.558 7.63955 15.8916 7.63955C17.2252 7.63955 18.5588 7.80759 19.814 8.14368C22.8145 6.20185 24.1285 6.61262 24.1285 6.61262C24.9914 8.66648 24.4423 10.1975 24.2854 10.571C25.2856 11.6166 25.8936 12.9422 25.8936 14.5853C25.8936 20.3174 22.2262 21.5871 18.7353 21.9605C19.3041 22.4273 19.7943 23.3236 19.7943 24.7239C19.7943 26.7218 19.7747 28.3275 19.7747 28.8316C19.7747 29.2237 20.0689 29.6905 20.8534 29.5411C27.0506 27.562 31.5417 21.9605 31.5417 15.3695C31.5417 7.11675 24.5207 0.432373 15.8524 0.432373Z" fill="url(#githubIcon)"/>
    <defs>
        <linearGradient id="githubIcon" x1="15.8524" y1="0.432373" x2="15.8524" y2="29.5697" gradientUnits="userSpaceOnUse">
        <stop stop-color="#faaa00" stop-opacity="0.8"/>
        <stop offset="1" stop-color="#f7da6c"/>
        </linearGradient>
        <linearGradient id="githubIconHover" x1="15.8524" y1="0.432373" x2="15.8524" y2="29.5697" gradientUnits="userSpaceOnUse">
        <stop stop-color="#f7da6c" stop-opacity="0.8"/>
        <stop offset="1" stop-color="#faaa00"/>
        </linearGradient>
    </defs>
    <style>svg.github-icon:hover path{fill: url(#githubIconHover)}</style>
</svg>
