<svg class="telegram-icon" viewBox="0 0 32 33" fill="none" xmlns="http://www.w3.org/2000/svg">
    <path fill-rule="evenodd" clip-rule="evenodd" d="M15.6893 0.136353C7.0262 0.136353 0 7.33124 0 16.2083C0 25.0841 7.0262 32.2803 15.6893 32.2803C24.3537 32.2803 31.3786 25.0841 31.3786 16.2083C31.3786 7.33124 24.3537 0.136353 15.6893 0.136353ZM19.9045 24.0716C20.1503 24.2497 20.4667 24.2939 20.7491 24.1854C21.0302 24.0756 21.2381 23.8278 21.3009 23.5278C21.9637 20.3375 23.5719 12.2613 24.1746 9.36033C24.2204 9.14068 24.1445 8.91299 23.9772 8.76701C23.8085 8.62102 23.5758 8.5795 23.3692 8.65718C20.1712 9.87062 10.3223 13.6556 6.29665 15.1811C6.04169 15.2788 5.87565 15.5293 5.88349 15.8065C5.89265 16.0824 6.07438 16.3222 6.33587 16.4025C8.14145 16.9557 10.5105 17.7258 10.5105 17.7258C10.5105 17.7258 11.6179 21.1518 12.1945 22.8929C12.2677 23.1126 12.4351 23.284 12.6547 23.343C12.8757 23.4019 13.1097 23.3403 13.2745 23.1809C14.2014 22.2849 15.6344 20.8987 15.6344 20.8987C15.6344 20.8987 18.3591 22.9438 19.9045 24.0716ZM11.5068 17.2919L12.7881 21.6192L13.0731 18.879C13.0731 18.879 18.0192 14.3078 20.8406 11.7028C20.923 11.6265 20.9335 11.4979 20.8655 11.4082C20.7975 11.3184 20.672 11.297 20.5792 11.3586C17.3105 13.4962 11.5068 17.2919 11.5068 17.2919Z" fill="url(#telegramIcon)"/>
    <defs>
        <linearGradient id="telegramIcon" x1="15.6893" y1="0.136353" x2="15.6893" y2="32.2803" gradientUnits="userSpaceOnUse">
        <stop stop-color="#faaa00" stop-opacity="0.8"/>
        <stop offset="1" stop-color="#f7da6c"/>
        </linearGradient>
        <linearGradient id="telegramIconHover" x1="15.6893" y1="0.136353" x2="15.6893" y2="32.2803" gradientUnits="userSpaceOnUse">
        <stop stop-color="#f7da6c" stop-opacity="0.8"/>
        <stop offset="1" stop-color="#faaa00"/>
        </linearGradient>
    </defs>
    <style>svg.telegram-icon:hover path{fill: url(#telegramIconHover)}</style>
</svg>
