<svg class="twitter-icon" viewBox="0 0 32 32" fill="none" xmlns="http://www.w3.org/2000/svg">
    <path fill-rule="evenodd" clip-rule="evenodd" d="M15.8758 31.955C24.5408 31.955 31.5652 24.9306 31.5652 16.2656C31.5652 7.60067 24.5408 0.576324 15.8758 0.576324C7.21087 0.576324 0.186523 7.60067 0.186523 16.2656C0.186523 24.9306 7.21087 31.955 15.8758 31.955ZM12.7854 25.9779C20.9123 25.9779 25.4272 18.8374 25.1262 12.4903C25.8787 11.8556 26.6311 11.0622 27.0826 10.1101C26.3301 10.5861 25.5777 10.7448 24.6747 10.9035C25.5777 10.2688 26.3301 9.4754 26.6311 8.36465C25.8787 8.84069 24.9757 9.31672 23.9222 9.4754C23.1697 8.52333 21.9657 8.0473 20.7618 8.0473C17.9023 8.0473 15.9459 10.7448 16.5478 13.601C12.9359 13.4424 9.77547 11.5382 7.66851 8.84069C6.46454 10.9035 7.06652 13.601 9.02299 15.0291C8.2705 14.8705 7.66851 14.7118 7.06652 14.3944C6.91603 16.4572 8.421 18.5201 10.528 18.9961C9.92597 19.1548 9.17348 19.1548 8.5715 18.9961C9.02299 20.7416 10.6785 22.1697 12.6349 22.011C10.6785 23.5978 8.421 24.2325 6.16354 23.9151C8.12 25.1846 10.3775 25.9779 12.7854 25.9779Z" fill="url(#twitterIcon)"/>
    <defs>
        <linearGradient id="twitterIcon" x1="15.8758" y1="0.576324" x2="15.8758" y2="31.955" gradientUnits="userSpaceOnUse">
        <stop stop-color="#faaa00" stop-opacity="0.8"/>
        <stop offset="1" stop-color="#f7da6c"/>
        </linearGradient>
        <linearGradient id="twitterIconHover" x1="15.8758" y1="0.576324" x2="15.8758" y2="31.955" gradientUnits="userSpaceOnUse">
        <stop stop-color="#f7da6c" stop-opacity="0.8"/>
        <stop offset="1" stop-color="#faaa00"/>
        </linearGradient>
    </defs>
    <style>svg.twitter-icon:hover path{fill: url(#twitterIconHover)}</style>
</svg>
